<?xml version="1.0" encoding="UTF-8"?>
<svg xmlns="http://www.w3.org/2000/svg" version="1.1" viewBox="0 0 479.7 562.4">
  <defs>
    <style>
      .cls-1 {
        fill: #231f20;
      }
    </style>
  </defs>
  <!-- Generator: Adobe Illustrator 28.7.10, SVG Export Plug-In . SVG Version: 1.2.0 Build 236)  -->
  <g>
    <g id="Layer_1">
      <path class="cls-1" d="M267.1,327.9c-4.6,39.2-.7,79.9-1.6,119.5.1,6.8.6,13.6,1.9,20.2,7.4,40.8,50.4,69.1,88.9,47.7,54.9-31.7,85.5-107.2,85.6-168.6,0-106.4.1-212.7,0-319.1-1.3-15.2,5.2-31,23.4-27,12.6,2.3,14.2,15.9,13.7,26.8v162.6c-3.4,112.5,20.1,224.2-58.6,317.7-24.2,30.2-59,53.8-99.5,51.1-19.8-1.1-37.2-8.8-52.3-21.5-6.7-5.9-14.2-11.5-23.5-11.3-40-.2-79.8,1.5-119.3,8.6-16.5,1.3-44.3,17.2-50.4-7.1-2.5-14.1,12.1-20.4,23.4-23.1,41.2-11.1,84.2-14.3,126.7-13.9,4.5,0,9.6-.6,9-6.3-6.7-36.9-4.3-74.2-4.8-112.1.4-14-8.4-2-13.2,2.2-43.5,41.7-84.5,86.4-130,126-17.4,16.6-33.9,34-50.1,51.8-16.5,21.3-45.4,6.2-33.6-16.6,92.5-97.8,195-188.6,286.6-286.4h0c-53.3,3.4-107.8,14.2-161.3,20.4-5.4.7-10.9,1.3-16.1,0-21.7-5.7-28.1-31.3-10.5-46.1,63.3-62.4,125.9-125.5,188.8-188.3,11.6-10.5,21.1-24.1,34.6-32,12.4-5.8,27.4,9.9,23.4,22.1-2.6,8.2-10.4,14.1-16.1,20.3-59.2,59.4-118.8,118.5-178,177.9-3.3,3.5-3.9,5.6,1.6,5.2,53.9-7.1,107.6-14.1,161.5-21.4,13.3-.4,30.4-8.7,41.6,1.4,15.8,17.3-7.3,33.4-18.7,45.1-23.9,25-51.7,47.4-73.4,74.4"/>
    </g>
  </g>
</svg>