<?xml version="1.0" encoding="UTF-8"?>
<svg id="Layer_1" xmlns="http://www.w3.org/2000/svg" version="1.1" viewBox="0 0 82.13 82.13">
  <!-- Generator: Adobe Illustrator 30.0.0, SVG Export Plug-In . SVG Version: 2.1.1 Build 123)  -->
  <defs>
    <style>
      .st0 {
        fill: #fff;
      }
    </style>
  </defs>
  <circle class="st0" cx="41.06" cy="41.06" r="41.06"/>
  <g>
    <path d="M68.87,61.92c-.11.11-.38.16-.54.17-2.08.19-4.5-.12-6.61-.04l-.52-.3-10.03-16.1c-.18-.13-.48-.11-.6.08-1.98,3.03-3.84,6.14-5.86,9.14-3.05,4.53-6.63,6.84-12.14,7.57-10.07,1.32-19.34-3.89-19.44-14.81v-27.48c0-.37.2-.59.56-.63,1.75-.21,3.89.16,5.68,0,.26,0,.47.18.54.43.21,9.54.04,19.11.09,28.66.4,6.66,7.68,8.92,13.27,7.3,4.23-1.23,5.48-4.14,7.69-7.54,6.13-9.42,12.06-18.97,18.19-28.4.25-.22.55-.41.9-.45,2.14.15,4.54-.2,6.65,0,1.05.1.3.99,0,1.49-3.67,6.04-7.79,11.82-11.52,17.82-.25.41.19.92.4,1.29,4.26,7.11,9.02,13.94,13.32,21.02.17.22.17.57-.02.77Z"/>
    <path d="M34,19.55l6.71-.02c.2.02.47.15.63.27.48.35,1.54,2.15,1.95,2.76,1.74,2.62,3.38,5.32,5.14,7.93.29.39.14.6-.05.97-.88,1.73-2.45,3.4-3.34,5.17-.33.41-.61.38-.92-.05-3.12-5.29-6.98-10.34-10.05-15.63-.26-.45-.78-1.08-.06-1.4Z"/>
  </g>
</svg>